<svg width="40" height="40" viewBox="0 0 40 40" fill="none" xmlns="http://www.w3.org/2000/svg">
<rect width="40" height="40" rx="4" fill="#ED9B33"/>
<path d="M9.99389 22.0959C9.3343 21.4541 8.81475 20.6826 8.46795 19.8301C8.12116 18.9776 7.95464 18.0625 7.97887 17.1425C8.00311 16.2225 8.21757 15.3174 8.60877 14.4844C8.99996 13.6513 9.5594 12.9082 10.2519 12.302C10.9443 11.6958 11.7548 11.2395 12.6323 10.9619C13.5098 10.6843 14.4352 10.5914 15.3504 10.689C16.2655 10.7866 17.1506 11.0727 17.9497 11.5291C18.7489 11.9856 19.4449 12.6026 19.9939 13.3412C20.5453 12.6079 21.2421 11.9963 22.0407 11.5447C22.8393 11.0931 23.7225 10.8112 24.6351 10.7166C25.5477 10.622 26.47 10.7168 27.3443 10.9951C28.2185 11.2734 29.0259 11.7291 29.716 12.3337C30.406 12.9384 30.9638 13.679 31.3545 14.5091C31.7451 15.3392 31.9602 16.2411 31.9863 17.1582C32.0124 18.0753 31.8489 18.9879 31.5061 19.8389C31.1632 20.6899 30.6484 21.461 29.9939 22.1039M29.9939 22.0959L19.9939 31.9999L9.99389 22.0959H29.9939Z" stroke="white" stroke-width="2.66667" stroke-linecap="round" stroke-linejoin="round"/>
</svg>
