<svg width="40" height="40" viewBox="0 0 40 40" fill="none" xmlns="http://www.w3.org/2000/svg">
<rect width="40" height="40" rx="4" fill="#ED9B33"/>
<path d="M12 17.3329C11.9989 15.8941 12.3304 14.4745 12.9687 13.185C13.607 11.8955 14.5348 10.771 15.6796 9.89946C16.8244 9.02788 18.1552 8.43278 19.5681 8.16065C20.9809 7.88851 22.4376 7.94671 23.8242 8.33071C25.2108 8.7147 26.4899 9.41408 27.5615 10.3742C28.6332 11.3344 29.4683 12.5293 30.0017 13.8656C30.535 15.2019 30.7523 16.6434 30.6363 18.0776C30.5204 19.5117 30.0744 20.8996 29.3333 22.1329C28.5753 23.1437 27.6774 24.0415 26.6667 24.7996C25.485 25.9126 24.5729 27.2807 24 28.7996C23.5862 29.5815 23.0047 30.2622 22.2971 30.793C21.5894 31.3238 20.7731 31.6916 19.9067 31.87C19.0402 32.0484 18.145 32.033 17.2852 31.8249C16.4254 31.6168 15.6223 31.2211 14.9333 30.6663" stroke="white" stroke-width="2.66667" stroke-linecap="round" stroke-linejoin="round"/>
<path d="M17.3362 17.333C17.3282 16.6638 17.4882 16.0033 17.8016 15.412C18.115 14.8207 18.5718 14.3174 19.1301 13.9484C19.6883 13.5793 20.3303 13.3562 20.9971 13.2995C21.6639 13.2428 22.3343 13.3544 22.9469 13.6239C23.5595 13.8934 24.0946 14.3123 24.5033 14.8423C24.912 15.3722 25.1813 15.9962 25.2863 16.6571C25.3914 17.3181 25.329 17.9948 25.1047 18.6254C24.8805 19.2559 24.5017 19.8201 24.0029 20.2663" stroke="white" stroke-width="2.66667" stroke-linecap="round" stroke-linejoin="round"/>
</svg>
