<svg width="40" height="40" viewBox="0 0 40 40" fill="none" xmlns="http://www.w3.org/2000/svg">
<rect width="40" height="40" rx="4" fill="#ED9B33"/>
<path fill-rule="evenodd" clip-rule="evenodd" d="M26.6641 10.6667C25.9277 10.6667 25.3307 11.2636 25.3307 12C25.3307 12.7364 25.9277 13.3333 26.6641 13.3333C27.4004 13.3333 27.9974 12.7364 27.9974 12C27.9974 11.2636 27.4004 10.6667 26.6641 10.6667ZM22.6641 12C22.6641 9.79086 24.4549 8 26.6641 8C28.8732 8 30.6641 9.79086 30.6641 12C30.6641 14.2091 28.8732 16 26.6641 16C24.4549 16 22.6641 14.2091 22.6641 12Z" fill="white"/>
<path fill-rule="evenodd" clip-rule="evenodd" d="M12.0825 18.2923C13.2913 17.6398 14.6477 17.3095 16.0212 17.3332C16.7574 17.346 17.344 17.9532 17.3312 18.6894C17.3185 19.4257 16.7113 20.0122 15.975 19.9995C15.0594 19.9837 14.1551 20.2039 13.3493 20.6389C12.5434 21.0739 11.8632 21.7091 11.374 22.4833C10.8849 23.2575 10.6033 24.1446 10.5565 25.0592C10.5096 25.9738 10.6991 26.885 11.1065 27.7051C11.514 28.5253 12.1258 29.2267 12.883 29.7417C13.6402 30.2568 14.5173 30.5683 15.4297 30.6461C16.3422 30.7239 17.2593 30.5654 18.0928 30.1859C18.9262 29.8065 19.6479 29.2188 20.1884 28.4795C20.623 27.885 21.4572 27.7554 22.0516 28.19C22.6461 28.6245 22.7757 29.4588 22.3412 30.0532C21.5305 31.1622 20.4479 32.0437 19.1978 32.6129C17.9476 33.1821 16.5719 33.4198 15.2032 33.3031C13.8345 33.1864 12.5189 32.7192 11.3831 31.9466C10.2473 31.174 9.32963 30.1219 8.71841 28.8917C8.10718 27.6615 7.82302 26.2947 7.89329 24.9228C7.96356 23.5509 8.38589 22.2203 9.11961 21.059C9.85333 19.8977 10.8737 18.9449 12.0825 18.2923Z" fill="white"/>
<path fill-rule="evenodd" clip-rule="evenodd" d="M17.0077 12.0398C17.3972 11.9424 17.8098 12.0258 18.131 12.2667L23.4644 16.2667C24.011 16.6766 24.1592 17.4334 23.8077 18.0193L21.0193 22.6667H23.9977C24.4028 22.6667 24.7858 22.8508 25.0389 23.1671L30.3722 29.8337C30.8322 30.4088 30.739 31.2478 30.164 31.7078C29.589 32.1678 28.7499 32.0746 28.2899 31.4996L23.3569 25.3333H18.6644C18.184 25.3333 17.7408 25.075 17.5041 24.6569C17.2674 24.2389 17.2739 23.7259 17.5211 23.314L20.9024 17.6785L17.0387 14.7808L12.3211 15.9602C11.6067 16.1388 10.8828 15.7045 10.7042 14.9901C10.5256 14.2757 10.9599 13.5518 11.6743 13.3732L17.0077 12.0398Z" fill="white"/>
</svg>
