<svg width="73" height="79" viewBox="0 0 73 79" fill="none" xmlns="http://www.w3.org/2000/svg">
<path d="M22.2347 39.4432C27.1332 33.7606 34.5966 35.6217 37.7637 44.0453C37.6521 34.4659 43.5262 27.5414 49.7199 29.0149C55.9136 30.4885 58.0096 47.9957 42.0664 67.8016C21.4577 61.8528 17.3435 45.1124 22.2347 39.4432Z" fill="#ED9B33"/>
<path d="M22.2347 39.4432C27.1332 33.7606 34.5966 35.6217 37.7637 44.0453C37.6521 34.4659 43.5262 27.5414 49.7199 29.0149C55.9136 30.4885 58.0096 47.9957 42.0664 67.8016C21.4577 61.8528 17.3435 45.1124 22.2347 39.4432Z" fill="#ED9B33"/>
<path d="M32.5589 16.9222C32.3475 15.8672 32.1488 14.8755 31.9458 13.8627C31.857 13.4196 31.7682 12.9765 31.6794 12.5334C31.6355 12.0197 31.4572 11.5477 31.1642 11.1689C30.9163 10.9185 30.2716 10.9912 30.2006 11.5142C30.1658 12.5695 30.3016 13.5994 30.602 14.5591C30.7965 15.5297 30.991 16.5003 31.1834 17.4603C31.5619 19.3488 31.8052 21.3309 32.3251 23.1573C32.5705 24.0531 33.9274 23.4764 33.7908 22.5755C33.4184 20.6623 32.9353 18.8001 32.5589 16.9222Z" fill="#ED9B33"/>
<path d="M18.8662 23.6287L17.6174 22.2612C17.44 22.0561 17.2552 21.8647 17.0797 21.6698C16.9043 21.4749 16.6892 21.175 16.3348 21.1907C15.9804 21.2063 15.6003 21.6142 15.6614 21.9403C15.8914 22.5539 16.2579 23.0734 16.7292 23.4537C17.1101 23.8975 17.493 24.3516 17.8832 24.7919C18.6008 25.7093 19.3662 26.5755 20.1761 27.3869C20.5919 27.7519 21.5008 26.617 21.1811 26.1824C20.4636 25.2667 19.6298 24.4721 18.8662 23.6287Z" fill="#ED9B33"/>
<path d="M10.0077 38.3464L7.53636 37.7991L6.43805 37.5674C6.04962 37.4204 5.61864 37.4032 5.19195 37.5178C4.87889 37.637 4.57913 38.2331 4.8923 38.4702C5.62804 38.8792 6.43769 39.1311 7.28581 39.2148L9.65504 39.78C11.2075 40.1322 12.7571 40.6217 14.3411 40.8361C15.1089 40.9421 15.4153 39.568 14.7061 39.3664C13.1478 38.9326 11.5386 38.6858 10.0077 38.3464Z" fill="#ED9B33"/>
<path d="M14.0111 55.8186C13.3652 56.0502 12.7192 56.2817 12.0819 56.5101L11.209 56.823C10.8979 56.8977 10.6052 57.0771 10.3756 57.3336C10.2091 57.5764 10.2193 58.141 10.5449 58.1784C11.1904 58.1614 11.8432 57.9931 12.4577 57.6854L14.2909 57.0284C15.4781 56.6028 16.7236 56.2816 17.8787 55.7424C18.444 55.482 18.1522 54.3054 17.6194 54.4482C16.3763 54.8746 15.1878 55.3872 14.0111 55.8186Z" fill="#ED9B33"/>
<path d="M45.6665 14.8328L46.2698 12.7554C46.3517 12.4509 46.4448 12.153 46.5286 11.8587C46.6124 11.5644 46.6937 11.1509 47.0061 10.911C47.3185 10.6711 47.7903 10.7524 47.8515 11.0786C47.875 11.774 47.7389 12.4884 47.456 13.1528L46.9339 15.1336C46.6341 16.4434 46.2711 17.7424 45.8465 19.0243C45.6141 19.6377 44.43 19.305 44.5641 18.6964C44.856 17.3938 45.3002 16.1093 45.6665 14.8328Z" fill="#ED9B33"/>
<path d="M59.3176 22.0879L61.2828 19.8518C61.566 19.524 61.8493 19.1961 62.1434 18.8746C62.4279 18.4714 62.7951 18.1504 63.205 17.9466C63.527 17.824 63.9875 18.1307 63.8087 18.5551C63.3124 19.4332 62.697 20.2274 61.9893 20.9033L60.1367 23.0755C58.9252 24.4797 57.7467 26.0076 56.4505 27.3183C55.823 27.9554 55.0739 26.983 55.617 26.3048C56.8047 24.8258 58.1293 23.4623 59.3176 22.0879Z" fill="#ED9B33"/>
<path d="M62.9097 39.673C63.5557 39.4414 64.2017 39.2099 64.8389 38.9815L65.7119 38.6686C66.0092 38.5253 66.3298 38.4848 66.6244 38.5534C66.8594 38.6522 67.0617 39.1481 66.7937 39.3982C66.2283 39.8152 65.6 40.1061 64.9529 40.2507L63.1197 40.9078C61.9325 41.3333 60.7337 41.8882 59.5318 42.1937C58.9449 42.3463 58.7578 41.1323 59.2726 40.8996C60.5086 40.4373 61.7295 40.0864 62.9097 39.673Z" fill="#ED9B33"/>
</svg>
