<svg width="20" height="20" viewBox="0 0 20 20" fill="none" xmlns="http://www.w3.org/2000/svg">
<g clip-path="url(#clip0_908_21163)">
<path fill-rule="evenodd" clip-rule="evenodd" d="M5.83073 5.00016C4.45002 5.00016 3.33073 6.11945 3.33073 7.50016V12.5002C3.33073 13.8809 4.45002 15.0002 5.83073 15.0002H14.1641C15.5448 15.0002 16.6641 13.8809 16.6641 12.5002V7.50016C16.6641 6.11945 15.5448 5.00016 14.1641 5.00016H5.83073ZM1.66406 7.50016C1.66406 5.19898 3.52954 3.3335 5.83073 3.3335H14.1641C16.4652 3.3335 18.3307 5.19898 18.3307 7.50016V12.5002C18.3307 14.8013 16.4652 16.6668 14.1641 16.6668H5.83073C3.52954 16.6668 1.66406 14.8013 1.66406 12.5002V7.50016Z" fill="white"/>
<path fill-rule="evenodd" clip-rule="evenodd" d="M7.92275 6.77467C8.18401 6.62675 8.50464 6.63079 8.76208 6.78526L12.9287 9.28526C13.1798 9.43586 13.3333 9.70712 13.3333 9.99984C13.3333 10.2926 13.1798 10.5638 12.9287 10.7144L8.76208 13.2144C8.50464 13.3689 8.18401 13.3729 7.92275 13.225C7.66149 13.0771 7.5 12.8001 7.5 12.4998V7.49984C7.5 7.19961 7.66149 6.92259 7.92275 6.77467ZM9.16667 8.97166V11.028L10.8803 9.99984L9.16667 8.97166Z" fill="white"/>
</g>
<defs>
<clipPath id="clip0_908_21163">
<rect width="20" height="20" fill="white"/>
</clipPath>
</defs>
</svg>
