<svg width="20" height="20" viewBox="0 0 20 20" fill="none" xmlns="http://www.w3.org/2000/svg">
<g opacity="0.8" clip-path="url(#clip0_908_21166)">
<path fill-rule="evenodd" clip-rule="evenodd" d="M14.3303 4.94177C13.095 3.88811 11.5176 3.32149 9.89416 3.34824C8.27072 3.37499 6.71286 3.99328 5.51292 5.08707C4.31297 6.18086 3.55345 7.67496 3.37687 9.28898C3.20029 10.903 3.61881 12.526 4.55387 13.8533C4.72125 14.0909 4.75275 14.3986 4.63699 14.6652L3.88068 16.407L6.55973 15.9295C6.73392 15.8985 6.91348 15.9237 7.07239 16.0015C8.53063 16.7155 10.1993 16.8728 11.7653 16.4438C13.3312 16.0148 14.6868 15.0291 15.5777 13.6717C16.4685 12.3142 16.8333 10.6784 16.6036 9.07103C16.374 7.4637 15.5656 5.99543 14.3303 4.94177ZM2.4006 18.3278C2.4864 18.3379 2.57221 18.3344 2.65514 18.3183L6.59183 17.6167C8.35329 18.4073 10.3379 18.5629 12.2056 18.0512C14.163 17.5151 15.8575 16.2829 16.9711 14.5861C18.0846 12.8893 18.5406 10.8444 18.2535 8.83529C17.9665 6.82613 16.956 4.99079 15.4119 3.67372C13.8677 2.35664 11.896 1.64836 9.8667 1.6818C7.83741 1.71524 5.89007 2.48809 4.39015 3.85533C2.89022 5.22257 1.94081 7.0902 1.72009 9.10773C1.51669 10.967 1.945 12.8357 2.92819 14.416L1.7378 17.1575C1.70303 17.2345 1.67974 17.3171 1.66972 17.4029C1.65761 17.506 1.66515 17.609 1.69038 17.707C1.72001 17.823 1.77315 17.9277 1.84371 18.0168C1.97945 18.1882 2.1796 18.302 2.4006 18.3278Z" fill="white"/>
<path fill-rule="evenodd" clip-rule="evenodd" d="M7.03018 6.61612C7.2646 6.38169 7.58254 6.25 7.91406 6.25C8.24558 6.25 8.56352 6.38169 8.79795 6.61612C9.03237 6.85054 9.16406 7.16848 9.16406 7.5V8.33333C9.16406 8.66485 9.03237 8.9828 8.79795 9.21722C8.71365 9.30151 8.61856 9.37252 8.51591 9.42891C8.67961 9.89926 8.94819 10.3315 9.30704 10.6904C9.66589 11.0492 10.0981 11.3178 10.5685 11.4815C10.6249 11.3788 10.6959 11.2837 10.7802 11.1994C11.0146 10.965 11.3325 10.8333 11.6641 10.8333H12.4974C12.8289 10.8333 13.1469 10.965 13.3813 11.1994C13.6157 11.4339 13.7474 11.7518 13.7474 12.0833C13.7474 12.4149 13.6157 12.7328 13.3813 12.9672C13.1469 13.2016 12.8289 13.3333 12.4974 13.3333H11.6641C10.338 13.3333 9.06621 12.8065 8.12853 11.8689C7.19085 10.9312 6.66406 9.65942 6.66406 8.33333V7.5C6.66406 7.16848 6.79576 6.85054 7.03018 6.61612Z" fill="white"/>
</g>
<defs>
<clipPath id="clip0_908_21166">
<rect width="20" height="20" fill="white"/>
</clipPath>
</defs>
</svg>
