<svg width="20" height="20" viewBox="0 0 20 20" fill="none" xmlns="http://www.w3.org/2000/svg">
<path fill-rule="evenodd" clip-rule="evenodd" d="M6.66667 4.16667C5.28595 4.16667 4.16667 5.28595 4.16667 6.66667V13.3333C4.16667 14.714 5.28595 15.8333 6.66667 15.8333H13.3333C14.714 15.8333 15.8333 14.714 15.8333 13.3333V6.66667C15.8333 5.28595 14.714 4.16667 13.3333 4.16667H6.66667ZM2.5 6.66667C2.5 4.36548 4.36548 2.5 6.66667 2.5H13.3333C15.6345 2.5 17.5 4.36548 17.5 6.66667V13.3333C17.5 15.6345 15.6345 17.5 13.3333 17.5H6.66667C4.36548 17.5 2.5 15.6345 2.5 13.3333V6.66667Z" fill="white"/>
<path fill-rule="evenodd" clip-rule="evenodd" d="M9.9974 8.33317C9.07692 8.33317 8.33073 9.07936 8.33073 9.99984C8.33073 10.9203 9.07692 11.6665 9.9974 11.6665C10.9179 11.6665 11.6641 10.9203 11.6641 9.99984C11.6641 9.07936 10.9179 8.33317 9.9974 8.33317ZM6.66406 9.99984C6.66406 8.15889 8.15645 6.6665 9.9974 6.6665C11.8383 6.6665 13.3307 8.15889 13.3307 9.99984C13.3307 11.8408 11.8383 13.3332 9.9974 13.3332C8.15645 13.3332 6.66406 11.8408 6.66406 9.99984Z" fill="white"/>
<path fill-rule="evenodd" clip-rule="evenodd" d="M13.7474 5.4165C14.2076 5.4165 14.5807 5.7896 14.5807 6.24984V6.25067C14.5807 6.71091 14.2076 7.084 13.7474 7.084C13.2872 7.084 12.9141 6.71091 12.9141 6.25067V6.24984C12.9141 5.7896 13.2872 5.4165 13.7474 5.4165Z" fill="white"/>
</svg>
