<svg width="20" height="20" viewBox="0 0 20 20" fill="none" xmlns="http://www.w3.org/2000/svg">
<g clip-path="url(#clip0_908_21165)">
<path fill-rule="evenodd" clip-rule="evenodd" d="M16.0704 3.2336C16.1418 3.21388 16.2118 3.19471 16.2806 3.17585C16.8821 3.01108 17.3955 2.87044 17.9396 2.60777C18.0871 2.52789 18.2596 2.49191 18.4371 2.51361C18.8552 2.56471 19.1694 2.91965 19.1694 3.34079V3.34162C19.1694 3.41819 19.1589 3.49315 19.139 3.56479C18.9785 4.19072 18.5555 5.05077 18.2242 5.70117C18.1386 5.86914 18.0599 6.02144 17.9877 6.16107C17.9053 6.32064 17.8313 6.46367 17.7655 6.59466C17.7169 6.69132 17.6801 6.76692 17.6543 6.82313C17.6478 7.908 17.4985 8.9875 17.2103 10.0338L17.2091 10.0378C16.1862 13.6792 13.508 16.1218 10.2635 17.0644C7.40018 17.8956 4.1677 17.3107 1.27055 15.7317C0.930717 15.5464 0.763139 15.1516 0.865986 14.7785C0.968833 14.4054 1.31503 14.1522 1.70177 14.1673C2.87345 14.2129 3.91435 13.9186 4.95962 13.3821C3.87774 12.7136 3.10067 11.9344 2.56789 11.0926C1.83278 9.93119 1.60181 8.71235 1.61252 7.62704C1.62318 6.54814 1.87209 5.58748 2.11175 4.90485C2.23239 4.56122 2.35292 4.28176 2.44482 4.08538C2.49084 3.98703 2.5299 3.90906 2.55849 3.85382C2.5728 3.82618 2.58451 3.80419 2.59319 3.78813L2.6039 3.76852L2.60745 3.76211L2.60876 3.75977L2.6093 3.75881C2.6093 3.75881 2.60975 3.758 3.33602 4.16662L2.60975 3.758C2.74943 3.50973 3.00625 3.35002 3.29069 3.33452C3.57513 3.31902 3.84778 3.4499 4.01361 3.68152C5.25173 5.41091 7.08138 6.46932 9.16911 6.64377C9.15952 4.88938 10.2632 3.38262 11.8938 2.77204C13.2473 2.26521 14.8494 2.20648 16.0704 3.2336ZM3.58636 5.75517C3.42409 6.28523 3.28605 6.9408 3.27911 7.64349C3.27087 8.47829 3.44708 9.36533 3.97619 10.2013C4.5041 11.0354 5.42245 11.8806 7.00238 12.5694C7.28192 12.6913 7.47257 12.9561 7.49945 13.2598C7.52633 13.5636 7.38514 13.8578 7.13135 14.0268C6.33828 14.5551 5.52056 15.0169 4.6437 15.3421C6.43891 15.8665 8.21862 15.9225 9.79855 15.4639M3.58636 5.75517C5.26427 7.4566 7.53365 8.39671 10.024 8.33301C10.4758 8.32146 10.836 7.95189 10.836 7.49995V6.66662L10.8359 6.65519C10.8219 5.62921 11.4578 4.71498 12.4783 4.33287C13.6371 3.89893 14.5979 4.02593 15.2123 4.71931C15.4268 4.96128 15.7618 5.05739 16.0719 4.96588C16.2454 4.91467 16.4281 4.86482 16.6176 4.81311C16.6894 4.79351 16.7622 4.77363 16.8359 4.75332C16.804 4.81686 16.7717 4.88068 16.7391 4.94457C16.6652 5.08972 16.5881 5.23903 16.5147 5.38118C16.4258 5.55331 16.3423 5.71493 16.2764 5.84598C16.2142 5.96965 16.1559 6.08904 16.1119 6.18951C16.0902 6.23894 16.0661 6.29708 16.046 6.35624L16.0448 6.35974C16.0329 6.39451 15.9868 6.52876 15.9877 6.68957C15.9931 7.66915 15.864 8.64483 15.604 9.58927C14.7448 12.6449 12.52 14.6732 9.79855 15.4639" fill="white"/>
</g>
<defs>
<clipPath id="clip0_908_21165">
<rect width="20" height="20" fill="white"/>
</clipPath>
</defs>
</svg>
