<svg width="20" height="20" viewBox="0 0 20 20" fill="none" xmlns="http://www.w3.org/2000/svg">
<g clip-path="url(#clip0_908_21162)">
<path fill-rule="evenodd" clip-rule="evenodd" d="M8.96447 3.13097C9.90215 2.19329 11.1739 1.6665 12.5 1.6665H15C15.4602 1.6665 15.8333 2.0396 15.8333 2.49984V5.83317C15.8333 6.29341 15.4602 6.6665 15 6.6665H12.5V7.49984H15C15.2566 7.49984 15.4989 7.61806 15.6568 7.82033C15.8148 8.02259 15.8707 8.28633 15.8085 8.53528L14.9751 11.8686C14.8824 12.2396 14.5491 12.4998 14.1667 12.4998H12.5V17.4998C12.5 17.9601 12.1269 18.3332 11.6667 18.3332H8.33333C7.8731 18.3332 7.5 17.9601 7.5 17.4998V12.4998H5.83333C5.3731 12.4998 5 12.1267 5 11.6665V8.33317C5 7.87293 5.3731 7.49984 5.83333 7.49984H7.5V6.6665C7.5 5.34042 8.02678 4.06865 8.96447 3.13097ZM12.5 3.33317C11.6159 3.33317 10.7681 3.68436 10.143 4.30948C9.51786 4.9346 9.16667 5.78245 9.16667 6.6665V8.33317C9.16667 8.79341 8.79357 9.1665 8.33333 9.1665H6.66667V10.8332H8.33333C8.79357 10.8332 9.16667 11.2063 9.16667 11.6665V16.6665H10.8333V11.6665C10.8333 11.2063 11.2064 10.8332 11.6667 10.8332H13.516L13.9327 9.1665H11.6667C11.2064 9.1665 10.8333 8.79341 10.8333 8.33317V6.6665C10.8333 6.22448 11.0089 5.80055 11.3215 5.48799C11.634 5.17543 12.058 4.99984 12.5 4.99984H14.1667V3.33317H12.5Z" fill="white"/>
</g>
<defs>
<clipPath id="clip0_908_21162">
<rect width="20" height="20" fill="white"/>
</clipPath>
</defs>
</svg>
