<svg width="72" height="63" viewBox="0 0 72 63" fill="none" xmlns="http://www.w3.org/2000/svg">
<path d="M21.1399 29.2901C25.61 24.8017 32.9585 26.939 36.467 34.3597C35.869 26.1777 41.2238 20.7015 47.3185 22.4146C53.4132 24.1277 56.345 39.2204 41.8629 54.9469C21.5301 48.3543 16.6761 33.7675 21.1399 29.2901Z" fill="#FF2667"/>
<path d="M21.1399 29.2901C25.61 24.8017 32.9585 26.939 36.467 34.3597C35.869 26.1777 41.2238 20.7015 47.3185 22.4146C53.4132 24.1277 56.345 39.2204 41.8629 54.9469C21.5301 48.3543 16.6761 33.7675 21.1399 29.2901Z" fill="#FF2667"/>
<path d="M31.3645 12.7315C31.1328 11.8667 30.915 11.0538 30.6925 10.2235C30.5952 9.8603 30.4979 9.49707 30.4005 9.13384C30.3385 8.71649 30.1628 8.32425 29.8928 8.00001C29.6676 7.78227 29.1163 7.80023 29.0799 8.21783C29.0998 9.06733 29.2652 9.90712 29.569 10.7007C29.7822 11.4963 29.9954 12.292 30.2063 13.079C30.6211 14.627 30.9241 16.2421 31.4576 17.7491C31.7111 18.4876 32.8515 18.1079 32.6914 17.3721C32.2806 15.8045 31.777 14.2709 31.3645 12.7315Z" fill="#FF2667"/>
<path d="M17.7303 18.145L16.4739 16.9152C16.2949 16.7314 16.1095 16.5586 15.9328 16.3835C15.7561 16.2084 15.5366 15.9428 15.1998 15.9311C14.863 15.9194 14.5208 16.2335 14.5949 16.5103C14.8439 17.0389 15.2185 17.4987 15.686 17.8493C16.0706 18.2468 16.4575 18.6529 16.8507 19.0481C17.5791 19.8648 18.3505 20.642 19.1616 21.3765C19.5755 21.7105 20.3859 20.826 20.0602 20.4405C19.332 19.6253 18.4989 18.9031 17.7303 18.145Z" fill="#FF2667"/>
<path d="M8.88021 30.0372L6.41501 29.3815L5.32001 29.1002C4.92943 28.944 4.5035 28.8978 4.08852 28.9668C3.78583 29.0479 3.52055 29.5453 3.84149 29.7745C4.58793 30.184 5.39927 30.462 6.23999 30.5964L8.60541 31.2602C10.1545 31.6794 11.7077 32.218 13.2808 32.5194C14.0434 32.6673 14.2756 31.4928 13.566 31.2658C12.007 30.7752 10.4073 30.4437 8.88021 30.0372Z" fill="#FF2667"/>
<path d="M12.8936 44.1711C12.2536 44.3426 11.6136 44.5141 10.9823 44.6832L10.1175 44.915C9.80728 44.9627 9.52135 45.111 9.30361 45.337C9.14873 45.5546 9.19032 46.0903 9.52144 46.1499C10.1728 46.1816 10.8232 46.0706 11.4272 45.8247L13.2433 45.338C14.4195 45.0229 15.6604 44.8109 16.7978 44.3856C17.3547 44.1808 16.9946 43.0444 16.4641 43.1402C15.2314 43.452 14.0588 43.8496 12.8936 44.1711Z" fill="#FF2667"/>
<path d="M44.5937 10.9472L45.0669 9.25389C45.13 9.00524 45.2042 8.76292 45.2696 8.52292C45.3351 8.28292 45.3923 7.94314 45.6782 7.76459C45.964 7.58603 46.4175 7.68701 46.4916 7.96375C46.5481 8.54637 46.4532 9.13368 46.2163 9.66891L45.8156 11.2872C45.594 12.3604 45.3117 13.4202 44.9699 14.4614C44.7784 14.9576 43.6343 14.5968 43.7324 14.0978C43.9468 13.03 44.3071 11.988 44.5937 10.9472Z" fill="#FF2667"/>
<path d="M58.2035 16.8198L60.0278 15.0147C60.2905 14.7497 60.5532 14.4847 60.8268 14.226C61.087 13.8954 61.4328 13.6424 61.8266 13.4946C62.1379 13.4112 62.6078 13.7117 62.4531 14.0683C62.0083 14.7971 61.4417 15.4443 60.7782 15.9816L59.0616 17.7393C57.9383 18.8745 56.8538 20.1198 55.6422 21.1675C55.0556 21.6768 54.2673 20.7758 54.7684 20.2244C55.8645 19.0223 57.1015 17.9308 58.2035 16.8198Z" fill="#FF2667"/>
<path d="M61.7906 31.0688C62.4306 30.8973 63.0705 30.7258 63.7019 30.5567L64.5667 30.3249C64.8592 30.2112 65.1809 30.1966 65.4825 30.2835C65.7254 30.3945 65.9573 30.8793 65.7003 31.0964C65.1521 31.4495 64.5333 31.6786 63.8873 31.7676L62.0711 32.2542C60.895 32.5694 59.7143 33.0063 58.5167 33.2067C57.932 33.3077 57.6757 32.1436 58.183 31.9613C59.4064 31.6149 60.6207 31.373 61.7906 31.0688Z" fill="#FF2667"/>
</svg>
