<svg width="32" height="32" viewBox="0 0 32 32" fill="none" xmlns="http://www.w3.org/2000/svg">
<path d="M11.4641 24C9.91767 24 8.66406 25.2536 8.66406 26.8C8.66406 27.4627 9.20132 28 9.86406 28H22.1307C22.7935 28 23.3307 27.4627 23.3307 26.8C23.3307 25.2536 22.0771 24 20.5307 24H11.4641Z" fill="white"/>
<path fill-rule="evenodd" clip-rule="evenodd" d="M24.1501 4.55945C23.5955 3.83547 22.535 3.60252 21.7339 4.18556C21.6479 4.24812 21.569 4.32057 21.4988 4.4008C21.3524 4.28469 21.1851 4.18687 20.986 4.12667C20.8066 4.07245 20.6196 4.04768 20.4322 4.05333C20.0978 4.06341 19.8176 4.18887 19.5688 4.34024C19.3374 4.48104 19.0768 4.68071 18.784 4.90505L12.0654 10.052C11.9222 10.1615 11.7861 10.2655 11.6801 10.382C11.2199 10.8877 11.1022 11.6133 11.3701 12.2345L10.4782 12.9184C10.3305 13.0315 10.196 13.1345 10.0886 13.2282C9.97366 13.3284 9.85546 13.4465 9.76038 13.6006C9.52097 13.9887 9.45852 14.4605 9.58872 14.8975C9.64043 15.0711 9.72384 15.2158 9.80877 15.3425C9.88811 15.4609 9.99114 15.5953 10.1043 15.7429L10.1264 15.7718C10.2395 15.9194 10.3425 16.0539 10.4362 16.1613C10.5364 16.2763 10.6545 16.3945 10.8086 16.4896C11.1967 16.729 11.6685 16.7914 12.1055 16.6612C12.279 16.6095 12.4238 16.5261 12.5505 16.4412C12.6688 16.3618 12.8033 16.2588 12.9509 16.1457L13.9237 15.4009C14.4253 15.6501 15.0462 15.6105 15.5208 15.2469L18.8963 12.661C19.2701 12.993 19.7383 13.2219 20.2558 13.302C20.4749 13.6476 20.6521 14.0201 20.7822 14.4118C21.061 15.2512 21.1139 16.1493 20.9357 17.0157C20.7574 17.8821 20.3542 18.6863 19.7666 19.3475C19.1791 20.0087 18.4278 20.5036 17.5883 20.7824C16.7489 21.0612 15.8508 21.1141 14.9844 20.9359C14.769 20.8916 14.4964 20.782 14.2015 20.6358C14.4712 20.5504 14.6667 20.2981 14.6667 20.0002C14.6667 19.632 14.3682 19.3335 14 19.3335H8.66667C8.29848 19.3335 8 19.632 8 20.0002C8 20.3684 8.29848 20.6668 8.66667 20.6668H8.7272C8.82757 20.8061 8.9592 20.9856 9.10755 21.1801C9.42968 21.6024 9.86772 22.145 10.2429 22.4784C11.3801 23.489 12.7633 24.1824 14.2534 24.489C15.7435 24.7956 17.288 24.7045 18.7318 24.225C20.1755 23.7455 21.4676 22.8943 22.4782 21.7572C23.4888 20.62 24.1822 19.2368 24.4888 17.7467C24.7954 16.2566 24.7043 14.7121 24.2248 13.2683C23.9901 12.5618 23.6665 11.8917 23.2639 11.2731C23.3093 11.0779 23.3333 10.8749 23.3333 10.6668C23.3333 10.2388 23.2321 9.83378 23.0526 9.47502C23.1395 9.40649 23.2188 9.34166 23.2884 9.27992C23.4329 9.15172 23.5747 9.00394 23.6808 8.81092C23.8817 8.44569 23.944 8.02086 23.8573 7.61431C23.9812 7.56161 24.0978 7.49205 24.2024 7.40779C24.9739 6.78606 25.025 5.70151 24.4704 4.97753L24.1501 4.55945ZM10.3978 20.6668C10.6569 20.9919 10.9226 21.2986 11.1286 21.4818C12.0909 22.3369 13.2612 22.9236 14.5221 23.183C15.7829 23.4425 17.0899 23.3654 18.3115 22.9596C19.5331 22.5539 20.6265 21.8337 21.4816 20.8715C22.3366 19.9092 22.9234 18.7389 23.1828 17.478C23.4422 16.2172 23.3652 14.9102 22.9594 13.6886C22.835 13.3139 22.6809 12.9512 22.4993 12.6038C22.2655 12.8251 21.9916 13.0046 21.6895 13.1302C21.8293 13.4072 21.949 13.695 22.0475 13.9915C22.4001 15.0531 22.4671 16.1887 22.2416 17.2844C22.0162 18.38 21.5063 19.397 20.7633 20.2332C20.0202 21.0693 19.0702 21.6951 18.0086 22.0477C16.947 22.4003 15.8114 22.4673 14.7157 22.2419C14.035 22.1018 13.2138 21.642 12.6255 21.2754C12.3169 21.0831 12.0452 20.8989 11.8507 20.7628C11.8002 20.7274 11.7547 20.6952 11.715 20.6668H10.3978ZM11.3037 13.9656L12.1393 13.3249L12.9905 14.4361L12.1544 15.0763C11.9877 15.204 11.887 15.2807 11.8081 15.3337C11.7525 15.3709 11.7286 15.3817 11.7237 15.3837C11.6515 15.4049 11.5738 15.3946 11.5096 15.3554C11.5054 15.3522 11.4851 15.3355 11.4412 15.2851C11.3787 15.2134 11.3014 15.1132 11.1737 14.9464C11.046 14.7797 10.9692 14.6791 10.9163 14.6001C10.8791 14.5446 10.8682 14.5207 10.8662 14.5157C10.8451 14.4436 10.8553 14.3658 10.8946 14.3016C10.8978 14.2974 10.9145 14.2771 10.9648 14.2332C11.0365 14.1707 11.137 14.0933 11.3037 13.9656ZM22.5185 5.26362C22.6831 5.14381 22.9374 5.16888 23.0917 5.3703L23.412 5.78838C23.5663 5.9898 23.5243 6.24184 23.3657 6.36961C23.3377 6.39217 23.3159 6.39692 23.307 6.39784L23.3022 6.39212L22.4802 5.31909L22.4778 5.31583C22.4799 5.30746 22.4892 5.28492 22.5185 5.26362ZM19.3333 10.6668C19.3333 9.93043 19.9302 9.33348 20.6666 9.33348C21.0595 9.33348 21.4119 9.50251 21.6569 9.77391C21.8706 10.0108 22 10.3229 22 10.6668C22 10.8424 21.9664 11.0085 21.9059 11.1602C21.7092 11.6535 21.2276 12.0001 20.6666 12.0001C20.1977 12.0001 19.7847 11.7585 19.5461 11.3899C19.4115 11.1819 19.3333 10.9345 19.3333 10.6668Z" fill="white"/>
</svg>
