<svg width="32" height="32" viewBox="0 0 32 32" fill="none" xmlns="http://www.w3.org/2000/svg">
<path d="M26.1538 8.65533C25.9313 8.57986 25.725 8.61669 25.5782 8.66676H6.33932C6.26924 8.64769 6.18877 8.63366 6.10104 8.63306C6.00437 8.63239 5.81961 8.65152 5.65003 8.7931C5.45097 8.95927 5.36372 9.22407 5.42612 9.47648C5.52363 9.87086 5.86442 9.98096 6.05326 9.99769L6.06653 10.0066C6.12689 10.0477 6.20129 10.1035 6.29271 10.1764C6.44848 10.3006 6.62931 10.4548 6.84616 10.6397L6.97371 10.7484C7.51401 11.2083 8.21781 11.7982 9.06966 12.3766C10.6412 13.4437 12.7431 14.4903 15.3355 14.6467V14.6668C15.3355 15.0349 15.634 15.3334 16.0022 15.3334C16.3704 15.3334 16.6688 15.0349 16.6688 14.6668V14.6462C19.194 14.49 21.2628 13.4685 22.8246 12.4163C23.6733 11.8445 24.3803 11.2581 24.9297 10.7924L25.1189 10.6317C25.3143 10.4655 25.4819 10.3229 25.6303 10.203C25.7444 10.1108 25.8314 10.0452 25.8963 10.0001H25.9228C26.1808 10.0001 26.4628 9.85175 26.5776 9.553C26.6371 9.39796 26.6486 9.19465 26.5506 8.99944C26.4525 8.80391 26.2877 8.70074 26.1538 8.65533Z" fill="white"/>
<path d="M16.6688 18.0001C16.6688 17.6319 16.3704 17.3334 16.0022 17.3334C15.634 17.3334 15.3355 17.6319 15.3355 18.0001V21.3334C15.3355 21.7016 15.634 22.0001 16.0022 22.0001C16.3704 22.0001 16.6688 21.7016 16.6688 21.3334V18.0001Z" fill="white"/>
<path d="M16.6688 24.6668C16.6688 24.2986 16.3704 24.0001 16.0022 24.0001C15.634 24.0001 15.3355 24.2986 15.3355 24.6668L15.3355 26.6668H10.6688C10.3007 26.6668 10.0022 26.9652 10.0022 27.3334C10.0022 27.7016 10.3007 28.0001 10.6688 28.0001H21.3355C21.7037 28.0001 22.0022 27.7016 22.0022 27.3334C22.0022 26.9652 21.7037 26.6668 21.3355 26.6668H16.6688L16.6688 24.6668Z" fill="white"/>
<path fill-rule="evenodd" clip-rule="evenodd" d="M16.0991 5.72885C18.0603 4.63061 20.3348 5.67416 21.4254 7.4961C21.6145 7.81202 22.0239 7.91482 22.3398 7.72572C22.6557 7.53662 22.7585 7.12722 22.5694 6.8113C21.2131 4.54544 18.0937 2.93138 15.2749 4.66646H14.1896C13.7879 4.66646 13.4312 4.92353 13.3042 5.30465L12.7404 6.99582C12.5493 7.56911 13.0947 8.11452 13.668 7.92342L15.3785 7.35325C15.726 7.23745 15.9736 6.92916 16.0117 6.56493L16.0991 5.72885ZM14.7302 5.99979H14.4779L14.3848 6.27904L14.7124 6.16985L14.7302 5.99979ZM21.6366 14.3972C21.8963 14.6583 21.8951 15.0804 21.6341 15.34C21.3239 15.6485 20.9126 15.8724 20.4831 16.0447C20.0474 16.2194 19.5491 16.3581 19.0283 16.4742C18.1247 16.6757 17.091 16.8221 16.1095 16.9611C15.9651 16.9816 15.8219 17.0019 15.6803 17.0222C14.5503 17.1841 13.5425 17.344 12.82 17.5723C12.4567 17.6871 12.2221 17.8026 12.0898 17.9053C12.0279 17.9534 12.0054 17.9858 11.9991 17.9967C11.9983 17.9981 11.9978 17.9992 11.9974 17.9999C11.9975 18.0191 12.0274 18.2095 12.3962 18.4568C12.746 18.6912 13.3244 18.9151 14.158 19.0036C14.5241 19.0425 14.7894 19.3708 14.7505 19.737C14.7117 20.1031 14.3833 20.3684 14.0172 20.3295C13.0264 20.2243 12.2264 19.9481 11.6538 19.5643C11.1013 19.1939 10.6641 18.6481 10.6641 17.9998C10.6641 17.4879 10.9424 17.1082 11.2719 16.8523C11.5879 16.6069 11.9975 16.4339 12.4182 16.3009C13.2637 16.0338 14.3834 15.8611 15.4912 15.7023C15.6364 15.6815 15.7817 15.6609 15.9267 15.6403C16.9145 15.5002 17.8901 15.3619 18.7382 15.1728C19.222 15.065 19.6435 14.9448 19.9867 14.8072C20.3362 14.667 20.5629 14.5249 20.6938 14.3947C20.9549 14.135 21.377 14.1362 21.6366 14.3972ZM17.1363 19.9611C17.2202 19.6026 17.5788 19.38 17.9373 19.4639C18.4259 19.5782 18.9142 19.7441 19.2927 20.0177C19.6989 20.3114 19.9974 20.748 19.9974 21.3331C19.9974 22.2558 19.2773 22.7535 18.6494 23.0275C18.0013 23.3103 17.1572 23.4895 16.3847 23.6522L16.327 23.6643C15.5389 23.8302 14.8067 23.9843 14.2243 24.2061C13.6007 24.4437 13.3617 24.6817 13.2965 24.8773C13.1801 25.2266 12.8025 25.4153 12.4532 25.2989C12.1039 25.1825 11.9152 24.8049 12.0316 24.4556C12.2997 23.6512 13.0607 23.2226 13.7496 22.9601C14.4326 22.7 15.2567 22.5268 16.0024 22.3701C16.0385 22.3625 16.0744 22.3549 16.1101 22.3474C16.9209 22.1767 17.6185 22.0226 18.1162 21.8054C18.6342 21.5794 18.6641 21.4105 18.6641 21.3331C18.6641 21.2635 18.6487 21.1974 18.5116 21.0983C18.3469 20.9793 18.0625 20.8625 17.6335 20.7621C17.275 20.6782 17.0524 20.3196 17.1363 19.9611Z" fill="white"/>
</svg>
