<svg width="224" height="64" viewBox="0 0 224 64" fill="none" xmlns="http://www.w3.org/2000/svg">
<g clip-path="url(#clip0_908_21261)">
<mask id="mask0_908_21261" style="mask-type:luminance" maskUnits="userSpaceOnUse" x="0" y="0" width="224" height="64">
<path d="M224 0H0V64H224V0Z" fill="white"/>
</mask>
<g mask="url(#mask0_908_21261)">
<path d="M22.3585 33.6506C23.0356 32.788 23.497 31.9327 23.6607 31.018C23.8617 29.8653 23.7426 28.378 23.1994 27.0245C24.2709 26.8014 25.1714 26.4445 25.8783 25.8495C26.7713 25.0984 27.6346 23.8788 28.0811 22.4882C29.041 23.0087 29.9638 23.3211 30.8865 23.3211C32.0549 23.3211 33.4911 22.9492 34.7264 22.1684C35.1283 23.1872 35.6417 24.0201 36.3487 24.615C37.2417 25.3662 38.5812 26.0131 40.0248 26.2139C39.6825 27.2551 39.5411 28.2218 39.6974 29.1365C39.8983 30.2892 40.516 31.6501 41.4908 32.7285C40.5606 33.3085 39.8314 33.9555 39.37 34.7587C38.7895 35.7701 38.3877 37.2128 38.4472 38.6704C37.3682 38.5142 36.3933 38.5365 35.5227 38.8563C34.4287 39.2579 33.2009 40.1056 32.3079 41.2583C31.5861 40.4403 30.8196 39.8305 29.9563 39.5107C28.8624 39.1091 27.3815 38.9678 25.9602 39.2727C25.9304 38.1721 25.7369 37.2202 25.2756 36.417C24.6877 35.4057 23.6459 34.3348 22.3659 33.658M25.7221 43.757C25.7742 42.5374 25.9081 41.526 25.9528 40.4254C28.2969 40.8493 29.8819 42.6564 30.3433 43.1249C31.7721 44.5825 32.7693 45.2221 33.1562 45.4377C33.1637 45.4452 33.1786 45.46 33.186 45.4675C32.866 45.4675 32.5386 45.4749 32.2186 45.4972C34.6892 45.3782 36.5645 46.2335 36.6612 46.2781C36.6166 46.2558 36.5794 46.226 36.5347 46.1963C35.8799 45.8616 35.3813 45.3336 34.9869 44.8354C34.2502 43.8612 33.6995 43.0059 33.0372 42.1358C35.1059 40.9534 37.4724 41.3029 38.1272 41.3624C40.1514 41.5558 41.3271 41.4071 41.7662 41.3253C41.7811 41.3253 41.7959 41.3253 41.8108 41.3253C41.7662 41.3624 41.7215 41.4071 41.6769 41.4442C43.5447 40.0164 45.5242 39.6297 45.5242 39.6297C45.3009 39.6594 45.0851 39.6892 44.847 39.7264C44.1326 39.8974 43.4108 39.8082 42.7931 39.6817C41.6025 39.414 40.6425 39.1091 39.5709 38.8712C40.3969 36.6327 42.4359 35.3685 42.9792 34.9966C44.6535 33.8365 45.4572 32.959 45.74 32.6169C45.7474 32.6095 45.7698 32.5946 45.7772 32.5872C45.74 32.7582 45.7251 32.9292 45.7028 33.1003C46.1642 30.4157 47.5409 28.8911 47.5409 28.8911C47.392 29.0547 47.2432 29.2258 47.0869 29.4043C46.6479 29.9992 46.0377 30.3933 45.4795 30.6982C44.4005 31.2634 43.4703 31.6576 42.4955 32.1633C41.6918 29.9174 42.4508 27.6269 42.622 26.9948C43.1652 25.0241 43.2173 23.8342 43.2099 23.388C43.2099 23.3731 43.2173 23.3583 43.2173 23.3434C43.7605 24.3325 44.6014 25.329 44.6014 25.329V25.3141C44.6014 25.3141 44.6312 25.3587 44.6535 25.3885C44.78 25.5298 44.914 25.6562 45.0479 25.7975C42.1011 22.5774 42.2052 19.3722 42.2052 19.3722C42.1978 19.5953 42.1829 19.8184 42.1829 20.0564C42.2276 20.7926 42.0118 21.4916 41.7811 22.0866C41.3122 23.217 40.8509 24.1168 40.4267 25.1356C38.3728 23.9309 37.4947 21.6924 37.2194 21.0975C36.371 19.2383 35.6492 18.2864 35.3664 17.9518C35.3664 17.9444 35.3515 17.922 35.3441 17.9146C35.6343 18.0262 35.9394 18.1228 36.2296 18.2046C33.945 17.4461 32.4418 16.0703 32.4418 16.0703C32.9479 16.6058 33.2306 17.2751 33.4316 17.8849C33.7962 19.045 34.0492 20.0489 34.3767 21.0901C32.0251 21.5065 29.8968 20.3538 29.3089 20.0712C27.4708 19.1937 26.3099 18.9334 25.8783 18.8591C25.8635 18.8591 25.8486 18.8442 25.8337 18.8442C26.1611 18.7326 26.4811 18.5913 26.7862 18.4575C24.5612 19.4243 22.5891 19.3276 22.5891 19.3276V19.3499C23.2589 19.4614 23.8542 19.7515 24.3528 20.0564C25.3797 20.7108 26.1834 21.328 27.1062 21.923C25.5658 23.745 23.2217 24.2283 22.5891 24.3919C20.6246 24.9051 19.5678 25.4554 19.1883 25.6785C19.1734 25.6785 19.1586 25.6859 19.1437 25.6934C19.166 25.6562 19.1883 25.6116 19.2032 25.5744C17.9158 27.6715 16.2266 28.5639 16.2266 28.5639C16.4275 28.4598 16.621 28.3557 16.8293 28.2367C17.4395 27.8277 18.1465 27.6715 18.779 27.5748C19.9771 27.4187 21.0041 27.3369 22.0906 27.1956C22.0906 29.5976 20.5873 31.494 20.2078 32.0368C19.0321 33.7027 18.5707 34.8033 18.4218 35.2197C18.4218 35.2346 18.3995 35.2495 18.3995 35.2569C18.3697 35.071 18.3251 34.8777 18.2804 34.6843C18.7865 37.3243 18.0051 39.3397 18.0051 39.3397C18.087 39.1314 18.1763 38.9232 18.2581 38.7001C18.4665 37.9936 18.9055 37.4136 19.3223 36.9302C20.1483 36.0303 20.8925 35.3387 21.6292 34.5281C23.1473 36.365 23.2142 38.7745 23.2663 39.4289C23.4226 41.4665 23.7798 42.6044 23.9361 43.0208C23.9361 43.0357 23.9361 43.058 23.9435 43.0654C23.7575 42.9018 23.564 42.7531 23.3705 42.6044C25.1416 44.0619 26.0421 45.7947 26.0421 45.7947C25.7518 45.118 25.7146 44.3892 25.7295 43.7496" fill="white"/>
<path d="M62.0527 38.2617C59.7681 42.2329 55.0427 41.5041 51.3963 39.3921C47.6829 37.2355 45.8374 34.1567 47.2439 31.71C49.4541 27.8653 54.0753 27.9099 58.2873 30.3566C61.6285 32.2975 63.7866 35.235 62.0453 38.2692M50.6447 56.199C46.3509 57.7681 43.2031 54.1613 41.7594 50.1827C40.2934 46.1372 40.8515 42.5824 43.4933 41.6157C47.6457 40.0986 51.1582 43.1179 52.8177 47.7137C54.1423 51.3577 53.9116 55.0017 50.6373 56.2064M38.6191 45.4158C38.3884 45.981 38.2395 46.5982 38.1428 47.2378C37.8154 47.0073 37.4656 46.7916 37.101 46.5759C36.9521 46.4793 36.8033 46.39 36.647 46.2933C36.5503 46.2487 34.6676 45.3935 32.2044 45.5125C31.8546 45.5422 31.557 45.572 31.304 45.6092C31.1254 45.6389 30.9542 45.6538 30.7756 45.691C30.7756 45.691 30.7235 45.691 30.6937 45.7058C29.7859 45.8694 28.9078 46.1372 28.1264 46.5611C27.5831 46.8437 27.0771 47.2229 26.5934 47.6468C26.4892 47.2527 26.3627 46.866 26.2213 46.4644C26.1544 46.2487 26.0874 46.0331 26.0055 45.81C26.0055 45.81 25.1125 44.0846 23.334 42.6196C22.627 42.0916 21.935 41.69 21.935 41.69H21.9424C21.9424 41.69 21.8978 41.6677 21.868 41.6529C21.0643 41.1918 20.2234 40.8348 19.3527 40.6489C18.7574 40.515 18.1249 40.4779 17.4849 40.4927C17.6486 40.1209 17.8049 39.7416 17.9537 39.3475C17.9537 39.3475 18.7351 37.3396 18.229 34.6921C18.1249 34.2385 18.0132 33.8295 17.9165 33.5023C17.857 33.3089 17.8049 33.1304 17.7305 32.9371C17.7305 32.9371 17.7156 32.8925 17.7007 32.8627C17.3807 31.9926 16.964 31.1746 16.4207 30.4755C16.0486 29.9847 15.5873 29.5534 15.0887 29.1518C15.4533 28.9808 15.818 28.7874 16.1826 28.5792C16.1826 28.5792 17.8718 27.6868 19.1592 25.5896C19.4792 25.0319 19.7397 24.4444 19.9108 24.0279C19.9778 23.8569 20.0597 23.6933 20.1192 23.5074H20.1118C20.1118 23.5074 20.1341 23.4702 20.149 23.4404C20.4615 22.5629 20.6624 21.6705 20.6922 20.7856C20.722 20.1683 20.6476 19.5436 20.5211 18.9115C20.9155 19.0156 21.3099 19.1049 21.7266 19.1792C21.9424 19.2313 22.1657 19.2759 22.3963 19.3205C22.4559 19.328 22.5005 19.3577 22.5601 19.3651V19.3428C22.5601 19.3428 24.5172 19.4321 26.7497 18.4727C26.9283 18.3909 27.1069 18.3017 27.2632 18.2273C27.5013 18.1084 27.7394 17.9894 27.985 17.8406H27.9701C27.9701 17.8406 28.0222 17.8183 28.052 17.8034C28.8482 17.3349 29.5775 16.7846 30.1728 16.1153C30.5896 15.6617 30.9319 15.1337 31.2444 14.5685C31.4826 14.8957 31.7281 15.2229 31.996 15.5501C32.13 15.7286 32.2714 15.9071 32.4202 16.093C32.4202 16.093 33.9234 17.4762 36.208 18.2273C36.9745 18.443 37.6442 18.562 37.6442 18.562H37.6368C37.6368 18.562 37.6889 18.5694 37.7186 18.5769C38.6265 18.733 39.5418 18.7851 40.4199 18.6587C41.0301 18.5769 41.6329 18.3984 42.2282 18.1604C42.1985 18.562 42.1836 18.9784 42.1762 19.4023C42.1762 19.4023 42.072 22.6075 45.0188 25.8276C45.5174 26.3556 46.0458 26.8464 46.6411 27.2183C47.1546 27.5455 47.735 27.7983 48.3453 28.0066C48.0625 28.2966 47.7871 28.6015 47.5118 28.9213C47.5118 28.9213 46.1425 30.4458 45.6737 33.1304C45.6737 33.1602 45.6663 33.1825 45.6588 33.2122C45.6067 33.5246 45.5844 33.8667 45.5621 34.2162C45.5398 34.5434 45.5398 34.7591 45.5398 34.8929C45.5398 35.1458 45.5621 35.4135 45.577 35.6738C45.6216 36.4026 45.7109 37.1239 45.9342 37.8007C46.1202 38.3882 46.403 38.9533 46.7304 39.5037C46.3286 39.5408 45.9267 39.6003 45.5026 39.6673C45.5026 39.6673 43.5231 40.054 41.6552 41.4818C40.9036 42.1139 40.2562 42.8725 40.1371 43.0138C40.1223 43.0361 40.1074 43.0509 40.0925 43.0733C40.0925 43.0733 40.0776 43.0881 40.0627 43.0956C40.0404 43.1253 40.0255 43.1476 40.0032 43.1699C39.4302 43.8764 38.9391 44.6275 38.6116 45.4381M37.5326 57.5004C36.2154 61.1444 33.7076 63.7918 30.4258 62.5945C26.132 61.0254 26.0279 56.2287 27.4715 52.2501C28.9375 48.2046 31.6388 45.8471 34.2806 46.8065C38.433 48.3236 39.1921 52.9045 37.5326 57.5004ZM19.576 55.1132C16.2347 57.0468 12.6181 57.4632 10.8767 54.4291C8.59215 50.4579 11.5837 46.7098 15.2301 44.5978C18.9434 42.4411 22.5229 42.3816 23.9293 44.8283C26.1395 48.6731 23.7879 52.674 19.576 55.1132ZM7.37173 41.6603C3.56906 40.9836 0.540325 38.9682 1.1431 35.5176C1.93935 30.9961 6.62012 30.0591 10.7725 30.7953C14.9919 31.5464 17.7751 33.8072 17.2914 36.5885C16.5249 40.9612 12.1641 42.5081 7.37173 41.6603ZM5.7569 14.7544C9.25445 11.8095 13.4441 14.1149 16.1528 17.3572C18.9062 20.6517 19.5909 24.1841 17.4402 25.9987C14.0543 28.8543 9.72328 27.2257 6.5978 23.4776C4.11974 20.5104 3.08536 17.0003 5.7569 14.747M22.5749 1.82204C27.1441 1.82204 28.8705 6.29891 28.8705 10.5304C28.8705 14.7618 27.1367 17.9819 24.3237 17.9819C19.9034 17.9819 17.6337 13.9364 17.6337 9.05048C17.6337 5.17598 19.0848 1.82204 22.5749 1.82204ZM35.3224 5.12392C37.8005 2.15669 41.0599 0.528057 43.7315 2.77393C47.229 5.71885 45.696 10.2701 42.9873 13.5125C40.2339 16.8069 36.8926 18.1009 34.7345 16.2864C31.3486 13.4381 32.1969 8.86457 35.3224 5.12392ZM51.3814 13.5348C55.1767 12.8655 58.7189 13.7207 59.3216 17.1639C60.1179 21.6854 56.0324 24.1767 51.88 24.9055C47.6606 25.6566 44.2747 24.4816 43.7835 21.7003C43.0171 17.3275 46.589 14.3751 51.374 13.5274M63.3029 30.8027C62.4918 29.1444 61.0853 27.7388 59.3886 26.7572C58.9644 26.5118 58.5179 26.3036 58.064 26.1102C60.1328 24.2808 61.2639 21.4697 60.6537 17.9894C60.1104 14.9106 58.317 12.0177 55.5041 10.6494C53.8223 9.89826 51.8428 9.74209 49.9154 10.0842C49.4317 10.166 48.9555 10.2924 48.4866 10.4337C48.9034 7.69701 47.9657 4.81158 45.2719 2.5434C42.8905 0.535494 39.6609 -0.527951 36.6322 0.245463C34.8685 0.758594 33.2462 1.91128 31.9886 3.41349C31.676 3.79276 31.3933 4.19434 31.1254 4.61079C29.6891 2.24593 27.1292 0.639607 23.6093 0.639607C20.4987 0.639607 17.3435 1.91128 15.5203 4.45462C14.4934 5.98657 13.9948 7.92011 13.9948 9.88339C13.9948 10.3742 14.032 10.865 14.0915 11.3559C11.4795 10.4709 8.48797 10.8948 5.7941 13.163C3.41279 15.1709 1.81284 18.1827 2.04353 21.3136C2.24445 23.1504 3.08536 24.9501 4.35043 26.4597C4.66298 26.839 5.01273 27.1885 5.36993 27.5232C2.80258 28.5271 0.785898 30.7804 0.175686 34.2682C-0.367552 37.347 0.33196 40.6861 2.51235 42.932C3.83696 44.2111 5.64527 45.044 7.57265 45.3861C8.05636 45.4679 8.5475 45.5125 9.03121 45.5422C7.7066 47.9666 7.60242 51.0007 9.36608 54.0647C10.9214 56.7716 13.5929 58.8762 16.7035 59.196C18.5416 59.3224 20.4541 58.7944 22.1508 57.8127C22.5749 57.5673 22.9768 57.2847 23.3712 56.9873C23.9144 59.7017 25.7748 62.0963 29.0789 63.301C32.0035 64.3719 35.3968 64.2603 37.9791 62.4904C39.4674 61.4047 40.5911 59.7612 41.2608 57.9169C41.432 57.4558 41.5585 56.9798 41.6701 56.5039C43.8208 58.2366 46.7751 58.8613 50.0866 57.6566C53.0111 56.5857 55.5413 54.3101 56.3896 51.2833C56.8287 49.4911 56.6501 47.5055 55.9729 45.6538C55.8018 45.1927 55.6008 44.7391 55.3776 44.3078C58.131 44.2408 60.8025 42.8204 62.5587 39.7565C64.114 37.0496 64.5903 33.6733 63.3103 30.8102" fill="white"/>
<path d="M75.6383 15.023C76.0774 15.7815 76.6652 16.3839 77.402 16.8301C78.1387 17.2763 78.9424 17.4994 79.8056 17.4994C80.6688 17.4994 81.4651 17.2763 82.1869 16.8375C82.9088 16.3987 83.4818 15.7964 83.9059 15.0304C84.3301 14.2644 84.5459 13.4166 84.5459 12.4945C84.5459 11.5723 84.3375 10.7543 83.9059 9.99577C83.4818 9.23723 82.9088 8.63486 82.1869 8.1961C81.4651 7.75734 80.6688 7.53424 79.8056 7.53424C78.9424 7.53424 78.1387 7.75734 77.3871 8.1961C76.6429 8.63486 76.055 9.2298 75.6234 9.99577C75.1918 10.7543 74.976 11.5872 74.976 12.4945C74.976 13.4018 75.1918 14.257 75.6383 15.0155M88.9886 22.2291C88.3932 22.7645 87.6937 23.1884 86.8975 23.4933C86.1012 23.7982 85.3198 23.947 84.5608 23.947C83.519 23.947 82.5664 23.6495 81.7107 23.0694C80.8549 22.4819 80.1405 21.649 79.5749 20.5782C78.0271 20.5484 76.6206 20.1766 75.3778 19.4627C74.1277 18.7487 73.1454 17.782 72.431 16.5624C71.7166 15.3427 71.3594 13.9893 71.3594 12.5019C71.3594 11.0146 71.724 9.63138 72.4682 8.40433C73.2049 7.17728 74.2095 6.21051 75.482 5.51146C76.7545 4.81241 78.1833 4.46289 79.761 4.46289C81.3386 4.46289 82.7525 4.81241 84.0324 5.51146C85.3124 6.21051 86.3245 7.17728 87.0612 8.40433C87.7979 9.63138 88.17 10.9997 88.17 12.5019C88.17 14.2272 87.6863 15.7741 86.7263 17.135C85.7663 18.4959 84.4864 19.4701 82.8939 20.0502C83.5636 20.7938 84.2557 21.1657 84.9701 21.1657C85.3422 21.1657 85.7663 21.0541 86.2426 20.8384C86.7189 20.6228 87.21 20.3253 87.716 19.9386L88.9886 22.244V22.2291Z" fill="white"/>
<path d="M95.0902 14.4639H100.031L97.5757 8.38818L95.0976 14.4639H95.0902ZM102.398 20.3389L101.17 17.3048H93.9293L92.7014 20.3389H89.0625L95.8567 4.70703H99.4956L106.178 20.3389H102.405H102.398Z" fill="white"/>
<path d="M106.484 4.70703H119.559V7.69657H114.774V20.3389H111.247V7.69657H106.484V4.70703Z" fill="white"/>
<path d="M125.934 14.4639H130.875L128.419 8.38818L125.941 14.4639H125.934ZM133.242 20.3389L132.014 17.3048H124.773L123.545 20.3389H119.906L126.7 4.70703H130.339L137.022 20.3389H133.249H133.242Z" fill="white"/>
<path d="M142.402 12.9246H145.662C146.644 12.9246 147.403 12.694 147.931 12.2404C148.46 11.7867 148.728 11.1174 148.728 10.2399C148.728 9.36239 148.46 8.72283 147.931 8.28407C147.403 7.84531 146.644 7.62221 145.662 7.62221H142.402V12.9171V12.9246ZM148.482 20.3389L146.004 15.8695H142.41V20.3389H138.875V4.70703H145.669C147.708 4.70703 149.293 5.17554 150.41 6.12744C151.526 7.07189 152.084 8.41049 152.084 10.1358C152.084 11.3405 151.831 12.3742 151.332 13.2295C150.834 14.0847 150.112 14.7391 149.152 15.1853L152.478 20.3464H148.482V20.3389Z" fill="white"/>
<path d="M160.727 4.70703H171.963L171.949 7.62964H164.254V11.467H171.323V14.4193H164.254V20.3389H160.727V4.70703Z" fill="white"/>
<path d="M178.464 16.5319C179.097 17.1789 179.945 17.5061 181.002 17.5061C182.059 17.5061 182.847 17.1864 183.458 16.5468C184.068 15.9073 184.373 15.0223 184.373 13.8919V4.7002H187.9V13.877C187.9 15.2454 187.625 16.4353 187.067 17.4392C186.509 18.4432 185.705 19.2166 184.663 19.7595C183.621 20.3023 182.386 20.5701 180.972 20.5701C179.558 20.5701 178.323 20.3023 177.266 19.7595C176.209 19.2166 175.398 18.4432 174.833 17.4392C174.267 16.4353 173.984 15.2454 173.984 13.877V4.7002H177.512V13.877C177.512 14.9925 177.824 15.8775 178.464 16.5245" fill="white"/>
<path d="M202.117 4.70703H205.466V20.3389H202.243L194.675 10.2845V20.3389H191.297V4.70703H194.519L202.117 14.7986V4.70703Z" fill="white"/>
<path d="M218.189 16.7544C218.881 16.3454 219.425 15.7728 219.812 15.044C220.198 14.3152 220.392 13.4823 220.392 12.5378C220.392 11.5934 220.184 10.7605 219.774 10.0168C219.365 9.27315 218.807 8.70052 218.1 8.28407C217.393 7.87505 216.589 7.66683 215.696 7.66683H212.653V17.3642H215.853C216.716 17.3642 217.497 17.1635 218.189 16.747M220.035 5.69611C221.285 6.35797 222.26 7.28012 222.952 8.46255C223.644 9.64498 223.994 10.9985 223.994 12.5155C223.994 14.0326 223.637 15.3861 222.93 16.5685C222.223 17.751 221.233 18.6731 219.968 19.335C218.703 19.9968 217.252 20.3315 215.637 20.3315H209.133V4.70703H215.771C217.363 4.70703 218.785 5.03424 220.042 5.70355" fill="white"/>
<path d="M71.3516 27.5605H78.5625L78.5476 29.3007H73.3534V32.1267H78.0862V33.8668H73.3534V38.0016H71.3516V27.5605Z" fill="white"/>
<path d="M83.2082 29.6797C82.6649 29.992 82.2259 30.4234 81.9133 30.9662C81.5933 31.5091 81.4371 32.1041 81.4371 32.7659C81.4371 33.4278 81.5933 34.0227 81.9208 34.573C82.2408 35.1233 82.6724 35.5547 83.2156 35.867C83.7589 36.1868 84.3467 36.343 84.9867 36.343C85.6267 36.343 86.1923 36.1868 86.7355 35.867C87.2713 35.5472 87.6955 35.1159 88.008 34.573C88.3206 34.0227 88.4768 33.4203 88.4768 32.7659C88.4768 32.1115 88.3206 31.5091 88.008 30.9662C87.6955 30.4234 87.2713 29.9995 86.7355 29.6797C86.1997 29.3674 85.6193 29.2112 84.9867 29.2112C84.3542 29.2112 83.7588 29.3674 83.2082 29.6797ZM87.7848 28.118C88.6331 28.5865 89.3029 29.2261 89.794 30.0441C90.2777 30.8621 90.5233 31.762 90.5233 32.7585C90.5233 33.755 90.2851 34.6623 89.794 35.4803C89.3029 36.2983 88.6405 36.9528 87.7848 37.4287C86.9364 37.9047 85.9913 38.1426 84.9569 38.1426C83.9226 38.1426 82.9775 37.9047 82.1291 37.4287C81.2808 36.9528 80.611 36.3058 80.1199 35.4803C79.6362 34.6623 79.3906 33.755 79.3906 32.7585C79.3906 31.762 79.6362 30.8621 80.1199 30.0441C80.611 29.2261 81.2734 28.5865 82.1291 28.118C82.9775 27.6495 83.9226 27.4189 84.9569 27.4189C85.9913 27.4189 86.9364 27.6495 87.7848 28.118Z" fill="white"/>
<path d="M94.4315 33.1678H96.7905C97.5495 33.1678 98.1225 33.0042 98.5244 32.677C98.9188 32.3498 99.1197 31.8589 99.1197 31.212C99.1197 30.565 98.9188 30.0965 98.5244 29.7767C98.13 29.4569 97.5495 29.3007 96.7905 29.3007H94.4315V33.1678ZM98.9709 38.0016L97.1626 34.9154C97.0807 34.9229 96.9616 34.9303 96.7905 34.9303H94.4315V38.0016H92.4297V27.5605H96.7905C98.1449 27.5605 99.1867 27.8729 99.9234 28.4976C100.66 29.1222 101.032 30.0072 101.032 31.1525C101.032 31.9705 100.854 32.6621 100.504 33.2422C100.147 33.8222 99.6332 34.2536 98.956 34.5361L101.255 37.9942H98.9709V38.0016Z" fill="white"/>
<path d="M113.289 35.7996C113.802 35.5022 114.204 35.0931 114.487 34.5726C114.777 34.052 114.919 33.4571 114.919 32.7878C114.919 32.1185 114.77 31.5235 114.472 30.9881C114.174 30.4601 113.765 30.0436 113.244 29.7536C112.723 29.4636 112.135 29.3148 111.488 29.3148H109.174V36.231H111.562C112.195 36.231 112.775 36.0822 113.289 35.7922M114.323 28.2142C115.149 28.653 115.797 29.2777 116.266 30.066C116.727 30.8617 116.965 31.7615 116.965 32.7655C116.965 33.7694 116.727 34.6693 116.258 35.4575C115.789 36.2533 115.134 36.8705 114.293 37.3167C113.46 37.7629 112.508 37.986 111.443 37.986H107.172V27.5449H111.518C112.56 27.5449 113.497 27.768 114.323 28.2068" fill="white"/>
<path d="M118.859 27.5605H126.517V29.3007H120.854V31.8813H125.929V33.6289H120.854V36.254H126.695V38.0016H118.859V27.5605Z" fill="white"/>
<path d="M127.617 27.5605H129.768L132.841 35.7781L135.944 27.5605H138.006L133.823 38.0016H131.755L127.617 27.5605Z" fill="white"/>
<path d="M139.484 27.5605H147.142V29.3007H141.486V31.8813H146.561V33.6289H141.486V36.254H147.32V38.0016H139.484V27.5605Z" fill="white"/>
<path d="M149.5 27.5605H151.502V36.1945H156.004V38.0016H149.5V27.5605Z" fill="white"/>
<path d="M160.724 29.6797C160.181 29.992 159.742 30.4234 159.429 30.9662C159.109 31.5091 158.953 32.1041 158.953 32.7659C158.953 33.4278 159.109 34.0227 159.436 34.573C159.756 35.1233 160.188 35.5547 160.731 35.867C161.274 36.1868 161.862 36.343 162.502 36.343C163.142 36.343 163.708 36.1868 164.251 35.867C164.787 35.5472 165.211 35.1159 165.524 34.573C165.836 34.0227 165.992 33.4203 165.992 32.7659C165.992 32.1115 165.836 31.5091 165.524 30.9662C165.211 30.4234 164.787 29.9995 164.251 29.6797C163.715 29.3674 163.135 29.2112 162.502 29.2112C161.87 29.2112 161.274 29.3674 160.724 29.6797ZM165.3 28.118C166.149 28.5865 166.818 29.2261 167.31 30.0441C167.793 30.8621 168.039 31.762 168.039 32.7585C168.039 33.755 167.793 34.6623 167.31 35.4803C166.818 36.2983 166.156 36.9528 165.3 37.4287C164.452 37.9047 163.507 38.1426 162.473 38.1426C161.438 38.1426 160.493 37.9047 159.645 37.4287C158.789 36.9528 158.127 36.3058 157.636 35.4803C157.152 34.6623 156.906 33.755 156.906 32.7585C156.906 31.762 157.152 30.8621 157.636 30.0441C158.127 29.2261 158.789 28.5865 159.645 28.118C160.493 27.6495 161.438 27.4189 162.473 27.4189C163.507 27.4189 164.452 27.6495 165.3 28.118Z" fill="white"/>
<path d="M175.854 32.6766C176.256 32.3494 176.457 31.8586 176.457 31.219C176.457 30.5795 176.256 30.1035 175.854 29.7837C175.452 29.464 174.872 29.3078 174.113 29.3078H171.932V33.1674H174.113C174.872 33.1674 175.452 33.0038 175.854 32.6766ZM177.275 28.4972C177.997 29.1219 178.362 30.0068 178.362 31.1521C178.362 32.2973 177.997 33.2715 177.275 33.9334C176.553 34.5953 175.534 34.9225 174.224 34.9225H171.94V37.9938H169.945V27.5527H174.232C175.541 27.5527 176.561 27.8651 177.283 28.4898" fill="white"/>
<path d="M180.164 27.5605H182.449L185.909 34.2833L189.34 27.5605H191.624V38.0016H189.794V30.5129L186.534 36.9233H185.254L181.987 30.5129V38.0016H180.164V27.5605Z" fill="white"/>
<path d="M194.344 27.5605H202.001V29.3007H196.346V31.8813H201.421V33.6289H196.346V36.254H202.18V38.0016H194.344V27.5605Z" fill="white"/>
<path d="M211.645 27.5605H213.58V38.0016H211.682L206.317 30.8104V38.0016H204.359V27.5605H206.257L211.645 34.7592V27.5605Z" fill="white"/>
<path d="M215.133 27.5605H223.653V29.3379H220.401V38.0016H218.385V29.3379H215.133V27.5605Z" fill="white"/>
<path d="M100.026 53.4102C100.026 54.5926 99.3417 55.3809 98.2999 55.3809H98.285C97.2208 55.3809 96.5139 54.5926 96.5139 53.4102V53.3953C96.5139 52.1906 97.2208 51.3874 98.285 51.3874H98.2999C99.3491 51.3874 100.026 52.1906 100.026 53.3953V53.4102ZM75.9527 53.9085H75.3127C74.1965 53.9085 73.3333 53.2764 73.3333 52.2278V52.2129C73.3333 51.1123 74.1965 50.4876 75.3127 50.4876H75.9527V53.9085ZM130.396 53.9085H125.239V45.334H123.177V53.9085H117.789V48.4425H115.728V53.9085H110.43V48.4425H108.368V53.9085H102.073C102.088 53.7672 102.088 53.6184 102.088 53.4623V53.4474C102.088 50.9859 100.57 49.3424 98.2999 49.3424H98.285C95.993 49.3424 94.4674 50.9784 94.4674 53.4474V53.4623C94.4674 53.6184 94.4674 53.7672 94.4823 53.9085H87.4128V48.4425H85.3515V53.9085H78.014V47.7881H75.9527V48.4425H75.7667C73.1323 48.4425 71.3984 49.9522 71.3984 52.2203V52.2352C71.3984 54.4811 73.0356 55.9684 75.4913 55.9684H95.2116C95.8665 56.8831 96.9455 57.426 98.2776 57.426H98.2924C99.617 57.426 100.681 56.8906 101.351 55.9684H132.457V45.3414H130.396V53.9159V53.9085Z" fill="white"/>
<path d="M168.226 53.9084H167.586C166.47 53.9084 165.607 53.2763 165.607 52.2277V52.2128C165.607 51.1122 166.47 50.4801 167.586 50.4801H168.226V53.901V53.9084ZM155.24 53.9084H150.336V50.5024H153.328C154.504 50.5024 155.255 51.075 155.255 52.2054L155.24 53.9084ZM163.679 52.2203V52.2351C163.679 52.8524 163.806 53.425 164.044 53.9158H157.317V52.5772C157.331 49.9446 155.821 48.4573 153.149 48.4499H150.344V45.2744H148.282V53.9084H139.739V48.4424H137.678V55.6486C137.678 56.6451 137.209 56.9872 136.554 56.9872C136.197 56.9872 135.9 56.9723 135.453 56.95L135.661 58.7348C136.004 58.8166 136.383 58.8538 136.763 58.8538C138.571 58.8538 139.553 58.2142 139.71 55.9683H170.287V48.4499H168.04C165.406 48.4499 163.672 49.9521 163.672 52.2203" fill="white"/>
<path d="M182.115 53.9093H181.475C180.358 53.9093 179.495 53.2772 179.495 52.2286V52.2138C179.495 51.1131 180.358 50.481 181.475 50.481H182.115V53.9019V53.9093ZM177.56 52.2212V52.2361C177.56 54.4299 179.212 55.6272 181.653 55.6272H182.115V56.7947H178.573C177.04 56.7947 175.975 56.1626 175.975 54.5117V52.0427H173.914V54.7199C173.914 57.4566 175.291 58.8473 178.126 58.8473H184.169V48.4434H181.921C179.287 48.4434 177.553 49.9456 177.553 52.2138" fill="white"/>
<path d="M190.171 53.9089H189.531C188.415 53.9089 187.552 53.2768 187.552 52.2283V52.2134C187.552 51.1128 188.415 50.4806 189.531 50.4806H190.171V53.9015V53.9089ZM185.617 52.2208V52.2357C185.617 54.4741 187.254 55.9689 189.71 55.9689H190.142C190.015 56.6233 189.45 56.7944 188.683 56.7944C187.976 56.7944 187.239 56.6903 186.547 56.4895L186.994 58.6758C187.545 58.7948 188.147 58.8469 188.78 58.8469C191.117 58.8469 192.233 58.0214 192.233 55.2252V48.4355H189.985C187.351 48.4355 185.617 49.9378 185.617 52.2059" fill="white"/>
<path d="M221.869 53.9086H215.298V50.5026H219.956C221.139 50.5026 221.883 51.0827 221.883 52.2056L221.869 53.9086ZM219.77 48.4427H215.298V47.7139H213.236V53.9086H207.566V48.4427H205.504V53.9086H199.834V52.3618C199.834 49.7813 198.651 48.4427 196.002 48.4427H195.689V50.5026H196.307C197.371 50.5026 197.892 51.0529 197.892 52.1536V53.9086H193.367V55.9686H223.945V52.57C223.96 49.9374 222.449 48.4575 219.777 48.4427" fill="white"/>
<path d="M85.0426 56.9355C84.3877 56.9355 83.8594 57.4636 83.8594 58.118C83.8594 58.7724 84.3877 59.3004 85.0426 59.3004C85.6975 59.3004 86.2184 58.7724 86.2184 58.118C86.2184 57.4636 85.69 56.9355 85.0426 56.9355Z" fill="white"/>
<path d="M87.8629 56.9355C87.208 56.9355 86.6797 57.4636 86.6797 58.118C86.6797 58.7724 87.208 59.3004 87.8629 59.3004C88.5178 59.3004 89.0387 58.7724 89.0387 58.118C89.0387 57.4636 88.5103 56.9355 87.8629 56.9355Z" fill="white"/>
<path d="M74.0895 47.0371C74.7443 47.0371 75.2652 46.5091 75.2652 45.8621C75.2652 45.2151 74.7369 44.6797 74.0895 44.6797C73.442 44.6797 72.9062 45.2077 72.9062 45.8621C72.9062 46.5165 73.4346 47.0371 74.0895 47.0371Z" fill="white"/>
<path d="M76.9098 47.0371C77.5646 47.0371 78.0856 46.5091 78.0856 45.8621C78.0856 45.2151 77.5572 44.6797 76.9098 44.6797C76.2624 44.6797 75.7266 45.2077 75.7266 45.8621C75.7266 46.5165 76.2549 47.0371 76.9098 47.0371Z" fill="white"/>
<path d="M115.425 47.0371C116.08 47.0371 116.601 46.5091 116.601 45.8621C116.601 45.2151 116.073 44.6797 115.425 44.6797C114.778 44.6797 114.242 45.2077 114.242 45.8621C114.242 46.5165 114.771 47.0371 115.425 47.0371Z" fill="white"/>
<path d="M118.246 47.0371C118.901 47.0371 119.421 46.5091 119.421 45.8621C119.421 45.2151 118.893 44.6797 118.246 44.6797C117.598 44.6797 117.062 45.2077 117.062 45.8621C117.062 46.5165 117.591 47.0371 118.246 47.0371Z" fill="white"/>
<path d="M109.441 47.0371C110.096 47.0371 110.617 46.5091 110.617 45.8621C110.617 45.2151 110.088 44.6797 109.441 44.6797C108.794 44.6797 108.258 45.2077 108.258 45.8621C108.258 46.5165 108.786 47.0371 109.441 47.0371Z" fill="white"/>
<path d="M166.621 47.0371C167.276 47.0371 167.804 46.5091 167.804 45.8621C167.804 45.2151 167.276 44.6797 166.621 44.6797C165.966 44.6797 165.438 45.2077 165.438 45.8621C165.438 46.5165 165.966 47.0371 166.621 47.0371Z" fill="white"/>
<path d="M169.441 44.6719C168.786 44.6719 168.258 45.1999 168.258 45.8543C168.258 46.5087 168.786 47.0367 169.441 47.0367C170.096 47.0367 170.624 46.5087 170.624 45.8543C170.624 45.1999 170.096 44.6719 169.441 44.6719Z" fill="white"/>
<path d="M180.121 47.0371C180.776 47.0371 181.304 46.5091 181.304 45.8621C181.304 45.2151 180.776 44.6797 180.121 44.6797C179.466 44.6797 178.938 45.2077 178.938 45.8621C178.938 46.5165 179.466 47.0371 180.121 47.0371Z" fill="white"/>
<path d="M182.941 47.0371C183.596 47.0371 184.124 46.5091 184.124 45.8621C184.124 45.2151 183.596 44.6797 182.941 44.6797C182.286 44.6797 181.758 45.2077 181.758 45.8621C181.758 46.5165 182.286 47.0371 182.941 47.0371Z" fill="white"/>
<path d="M206.543 47.0371C207.197 47.0371 207.726 46.5091 207.726 45.8621C207.726 45.2151 207.197 44.6797 206.543 44.6797C205.888 44.6797 205.359 45.2077 205.359 45.8621C205.359 46.5165 205.888 47.0371 206.543 47.0371Z" fill="white"/>
</g>
</g>
<defs>
<clipPath id="clip0_908_21261">
<rect width="224" height="64" fill="white"/>
</clipPath>
</defs>
</svg>
