<svg width="32" height="32" viewBox="0 0 32 32" fill="none" xmlns="http://www.w3.org/2000/svg">
<path fill-rule="evenodd" clip-rule="evenodd" d="M15.9974 3.99984C9.00179 3.99984 3.9974 9.00423 3.9974 15.9998C3.9974 22.9954 9.00179 27.9998 15.9974 27.9998C22.993 27.9998 27.9974 22.9954 27.9974 15.9998C27.9974 9.00423 22.993 3.99984 15.9974 3.99984ZM2.66406 15.9998C2.66406 8.26785 8.26541 2.6665 15.9974 2.6665C23.7294 2.6665 29.3307 8.26785 29.3307 15.9998C29.3307 23.7318 23.7294 29.3332 15.9974 29.3332C8.26541 29.3332 2.66406 23.7318 2.66406 15.9998Z" fill="white"/>
<path d="M16.0026 13.3335C14.5298 13.3335 13.3359 14.5274 13.3359 16.0002C13.3359 17.4729 14.5298 18.6668 16.0026 18.6668C17.4754 18.6668 18.6693 17.4729 18.6693 16.0002C18.6693 14.5274 17.4754 13.3335 16.0026 13.3335Z" fill="white"/>
<path d="M11.6732 5.73617C11.473 5.66494 11.3016 5.70426 11.2186 5.73103C11.1796 5.7436 11.1485 5.75722 11.1328 5.76425C11.118 5.77087 11.1035 5.77787 11.0964 5.78124L11.0949 5.782C9.18243 6.69951 7.56529 8.13562 6.42812 9.92751C5.29095 11.7194 4.68007 13.7941 4.66416 15.9152L4.66414 15.9169C4.66408 15.9247 4.66395 15.9409 4.66425 15.9571C4.66456 15.9742 4.6655 16.0082 4.67072 16.0488C4.68182 16.1353 4.71924 16.3072 4.86895 16.458C5.01912 16.6093 5.19131 16.6478 5.27706 16.6594C5.31754 16.6649 5.35145 16.666 5.36859 16.6665C5.38475 16.6669 5.40092 16.6669 5.40875 16.6669L12.0791 16.6669C12.0827 16.6669 12.1469 16.668 12.2097 16.6597C12.292 16.6489 12.4626 16.6128 12.6135 16.4651C12.7658 16.3159 12.8046 16.1443 12.8167 16.0642C12.826 16.0026 12.8264 15.939 12.8264 15.9341C12.8384 15.3553 13.0087 14.7904 13.3194 14.3008C13.6301 13.8113 14.0687 13.4167 14.5873 13.1593C14.5918 13.1572 14.6491 13.1298 14.7009 13.0952C14.7682 13.0501 14.907 12.942 14.9771 12.7406C15.0465 12.5412 15.0066 12.3715 14.9813 12.2924C14.962 12.2319 14.9336 12.1741 14.9322 12.1712L12.0921 6.13572C12.0887 6.12864 12.0819 6.11398 12.0746 6.09951C12.0669 6.08418 12.0514 6.054 12.0292 6.01971C11.9822 5.94707 11.8741 5.80763 11.6732 5.73617Z" fill="white"/>
<path d="M20.3192 5.73617C20.5194 5.66494 20.6909 5.70426 20.7738 5.73103C20.8128 5.7436 20.844 5.75722 20.8597 5.76425C20.8744 5.77087 20.889 5.77787 20.896 5.78124L20.8976 5.782C22.81 6.69951 24.4272 8.13562 25.5643 9.92751C26.7015 11.7194 27.3124 13.7941 27.3283 15.9152L27.3283 15.9169C27.3284 15.9247 27.3285 15.9409 27.3282 15.9571C27.3279 15.9742 27.3269 16.0082 27.3217 16.0488C27.3106 16.1353 27.2732 16.3072 27.1235 16.458C26.9733 16.6093 26.8011 16.6478 26.7154 16.6594C26.6749 16.6649 26.641 16.666 26.6239 16.6665C26.6077 16.6669 26.5915 16.6669 26.5837 16.6669L19.9133 16.6669C19.9097 16.6669 19.8455 16.668 19.7827 16.6597C19.7004 16.6489 19.5298 16.6128 19.379 16.4651C19.2267 16.3159 19.1879 16.1443 19.1758 16.0642C19.1665 16.0026 19.1661 15.939 19.1661 15.9341C19.154 15.3553 18.9837 14.7904 18.673 14.3008C18.3624 13.8113 17.9237 13.4167 17.4052 13.1593C17.4007 13.1572 17.3434 13.1298 17.2916 13.0952C17.2243 13.0501 17.0855 12.942 17.0154 12.7406C16.9459 12.5412 16.9859 12.3715 17.0111 12.2924C17.0305 12.2319 17.0589 12.1741 17.0603 12.1712L19.9004 6.13572C19.9037 6.12864 19.9106 6.11398 19.9179 6.09951C19.9255 6.08418 19.9411 6.054 19.9633 6.01971C20.0103 5.94707 20.1184 5.80763 20.3192 5.73617Z" fill="white"/>
<path d="M16.0049 19.1715C16.5847 19.1697 17.1524 19.009 17.6467 18.7075C17.651 18.7048 17.7047 18.6709 17.7615 18.6456C17.8355 18.6127 18.001 18.553 18.2087 18.601C18.4145 18.6486 18.5367 18.7729 18.5902 18.8364C18.631 18.885 18.6647 18.9397 18.6665 18.9426L22.2572 24.562C22.2609 24.5678 22.2704 24.5825 22.2794 24.5975C22.2883 24.6122 22.3056 24.6414 22.3227 24.6785C22.3591 24.757 22.4194 24.9228 22.3728 25.1308C22.3263 25.3381 22.2016 25.4622 22.1347 25.5181C22.1033 25.5444 22.0752 25.5635 22.0609 25.573C22.0475 25.5819 22.0338 25.5905 22.0272 25.5947L22.0257 25.5956C20.2297 26.7243 18.1526 27.3267 16.0303 27.3333C13.908 27.3399 11.8271 26.7504 10.0242 25.6329L10.0149 25.6272C10.0078 25.6227 9.99826 25.6167 9.98886 25.6105C9.9745 25.6011 9.94624 25.5822 9.91466 25.5561C9.84743 25.5006 9.72197 25.3773 9.67419 25.1702C9.62626 24.9625 9.68557 24.7964 9.72147 24.7176C9.73841 24.6805 9.75548 24.6511 9.76425 24.6364C9.77254 24.6225 9.78119 24.6088 9.78536 24.6022L13.342 18.9591C13.3436 18.9564 13.377 18.9013 13.4177 18.8525C13.4707 18.7886 13.5922 18.6635 13.7976 18.6147C14.005 18.5654 14.1709 18.6241 14.2451 18.6565C14.3022 18.6815 14.3559 18.7149 14.3601 18.7175C14.8562 19.016 15.4252 19.1733 16.0049 19.1715Z" fill="white"/>
</svg>
